<svg xmlns="http://www.w3.org/2000/svg" width="90" height="90" viewBox="0 0 90 90">
  <circle fill="#C71D23" cx="45" cy="45" r="45"/>
  <path fill="#FFFFFF" d="M67.792 39.958H42.273c-1.225.001-2.218.994-2.219 2.219l-.001 5.548c-.001 1.225.992 2.219 2.218 2.22h15.536c1.226 0 2.219.994 2.219 2.219v1.109c0 3.677-2.98 6.657-6.657 6.657H32.286a2.218 2.218 0 0 1-2.219-2.219l-.001-21.081c0-3.677 2.98-6.657 6.658-6.657h31.06a2.218 2.218 0 0 0 2.22-2.219l.004-5.549a2.218 2.218 0 0 0-2.217-2.22H36.726c-9.185 0-16.631 7.446-16.631 16.631v31.062c0 1.226.994 2.219 2.219 2.219h32.731c8.272 0 14.977-6.705 14.977-14.977V42.177a2.218 2.218 0 0 0-2.219-2.219Z"/>
</svg>
