<svg xmlns="http://www.w3.org/2000/svg" width="380" height="380" viewBox="0 0 380 380">
  <path fill="#E24329" d="m265.264 174.372-.213-.558-21.199-55.309a6.47 6.47 0 0 0-2.177-2.627 6.51 6.51 0 0 0-3.323-.87 6.529 6.529 0 0 0-3.208 1.218 6.477 6.477 0 0 0-1.875 2.853l-14.313 43.807h-57.91l-14.313-43.807a6.477 6.477 0 0 0-1.875-2.853 6.529 6.529 0 0 0-3.208-1.218 6.51 6.51 0 0 0-3.323.87 6.47 6.47 0 0 0-2.177 2.627l-21.199 55.312-.213.555c-6.282 16.385-.929 34.908 13.059 45.488l.076.056.187.141 32.291 24.174 15.972 12.09 9.719 7.349a6.49 6.49 0 0 0 7.92 0l9.719-7.349 15.968-12.09 32.481-24.315.085-.066c13.978-10.58 19.327-29.096 13.049-45.478Z"/>
  <path fill="#FC6D26" d="m265.264 174.372-.213-.558c-10.517 2.16-20.204 6.61-28.498 12.816-.135.098-25.205 19.058-46.552 35.197 15.85 11.985 29.648 22.404 29.648 22.404l32.481-24.315.085-.066c13.978-10.58 19.327-29.096 13.049-45.478Z"/>
  <path fill="#FCA326" d="m160.35 244.231 15.972 12.09 9.719 7.349a6.49 6.49 0 0 0 7.92 0l9.719-7.349 15.968-12.09s-13.798-10.419-29.648-22.404c-15.853 11.985-29.651 22.404-29.651 22.404Z"/>
  <path fill="#FC6D26" d="M143.446 186.63c-8.291-6.203-17.974-10.655-28.495-12.813l-.214.555c-6.281 16.385-.929 34.908 13.059 45.488l.076.056.187.141 32.291 24.174s13.798-10.419 29.651-22.404c-21.347-16.139-46.42-35.099-46.555-35.197Z"/>
</svg>
